<svg width="16" height="16" viewBox="0 0 16 16" fill="none" xmlns="http://www.w3.org/2000/svg">
<path d="M6.78711 4.92383C6.78711 5.75226 6.11554 6.42383 5.28711 6.42383C4.45868 6.42383 3.78711 5.75226 3.78711 4.92383C3.78711 4.0954 4.45868 3.42383 5.28711 3.42383C6.11554 3.42383 6.78711 4.0954 6.78711 4.92383Z" fill="white"/>
<path fill-rule="evenodd" clip-rule="evenodd" d="M0.5 2.75C0.5 1.50736 1.50736 0.5 2.75 0.5H13.25C14.4926 0.5 15.5 1.50736 15.5 2.75V13.25C15.5 14.4926 14.4926 15.5 13.25 15.5H2.75C1.50736 15.5 0.5 14.4926 0.5 13.25V2.75ZM2.75 2C2.33579 2 2 2.33579 2 2.75V13.25C2 13.6642 2.33579 14 2.75 14H4.79589L9.01738 7.63521C9.83048 6.40929 11.582 6.28058 12.5655 7.37447L14 8.98465V2.75C14 2.33579 13.6642 2 13.25 2H2.75ZM14 11.2132L11.4501 8.37739C11.1223 8.01276 10.5385 8.05567 10.2674 8.46431L6.59584 14H13.25C13.6642 14 14 13.6642 14 13.25V11.2132Z" fill="white"/>
</svg>
