<svg fill="none" height="18" viewBox="0 0 16 18" width="16" xmlns="http://www.w3.org/2000/svg"><g fill="#fff"><path clip-rule="evenodd" d="m7.8748 14.7225-.81486-1.8309-1.54341.576 1.68338 3.7824 5.83819-4.5412-1.079-1.1632z" fill-rule="evenodd"/><path clip-rule="evenodd" d="m10.834 1.25918c1.5735.58807 2.8823 1.64811 3.7119 3.00644.8295 1.35832 1.1307 2.93437.8541 4.46993-.2766 1.53555-1.1146 2.93955-2.3766 3.98195l-1.1163-1.1333c.9816-.8107 1.6333-1.90271 1.8484-3.09704.2152-1.19432-.019-2.42014-.6643-3.47661-.6452-1.05648-1.6631-1.88095-2.887-2.33834-1.22387-.45739-2.58111-.52058-3.84934-.1792-1.26822.34138-2.37222 1.06707-3.13111 2.05818s-1.12767 2.18886-1.04591 3.397.60921 2.35501 1.49592 3.25281c.88672.8977 2.08012 1.493 3.38467 1.6884l-.26902 1.5062c-1.67728-.2512-3.21165-1.0167-4.35172-2.1709-1.14006-1.1542-1.818205-2.62879-1.923324-4.18211-.10512-1.55333.369022-3.09329 1.344734-4.36757.97572-1.27429 2.39515-2.20732 4.02573-2.64624 1.63057-.438912 3.3756-.357677 4.94917.2304z" fill-rule="evenodd"/><path d="m7.15667 9.07145h1.37877v-.265c0-.49.19251-.73501.88449-1.12001.73357-.415 1.11347-.93999 1.11347-1.68999v-.01c0-1.135-.9834-1.93-2.47143-1.93-1.59729 0-2.5026.86-2.52861 2.085v.01l1.40479-.005h.0104c.02602-.565.42144-.93 1.01977-.93.59313 0 .98855.345.98855.815v.01c0 .47-.20291.71499-.87408 1.1-.71801.40499-1.00417.855-.93653 1.64zm.74401 2.40995c.58273 0 .94173-.32.94173-.835 0-.52-.359-.83995-.94173-.83995-.58272 0-.94693.31995-.94693.83995 0 .515.36421.835.94693.835z"/></g></svg>