<svg width="18" height="17" viewBox="0 0 18 17" fill="none" xmlns="http://www.w3.org/2000/svg">
<path d="M10.5169 1.42671C11.1398 0.784685 12.0488 0.437347 13.0438 0.461104C14.0388 0.484861 15.0384 0.877766 15.8226 1.55338C16.6068 2.229 17.1114 3.13199 17.2254 4.0637C17.3395 4.99541 17.0535 5.87953 16.4306 6.52155L15.0644 5.34456C15.3996 4.99918 15.5534 4.52355 15.492 4.02232C15.4307 3.52108 15.1592 3.0353 14.7374 2.67184C14.3155 2.30838 13.7777 2.09701 13.2425 2.08423C12.7072 2.07145 12.2182 2.2583 11.883 2.60369L10.5169 1.42671Z" fill="white"/>
<path fill-rule="evenodd" clip-rule="evenodd" d="M16.4457 6.50619L13.9638 9.07954C13.6211 9.43484 13.0376 9.46111 12.6606 9.13821C12.2835 8.81531 12.2556 8.26552 12.5983 7.91022L15.0802 5.33687L16.4457 6.50619Z" fill="white"/>
<path fill-rule="evenodd" clip-rule="evenodd" d="M11.9303 2.54705L9.3973 5.07576C9.04756 5.4249 8.46367 5.44078 8.09314 5.11122C7.72261 4.78167 7.70576 4.23148 8.0555 3.88234L10.5885 1.35363L11.9303 2.54705Z" fill="white"/>
<path d="M1.56942 10.8984C0.946465 11.5404 0.660546 12.4245 0.774564 13.3562C0.888583 14.2879 1.3932 15.1909 2.1774 15.8665C2.96161 16.5422 3.96116 16.9351 4.95617 16.9588C5.95119 16.9826 6.86015 16.6352 7.48311 15.9932L6.11696 14.8162C5.78183 15.1616 5.29283 15.3485 4.75754 15.3357C4.22226 15.3229 3.68453 15.1115 3.26265 14.7481C2.84077 14.3846 2.5693 13.8988 2.50796 13.3976C2.44662 12.8964 2.60044 12.4207 2.93557 12.0754L1.56942 10.8984Z" fill="white"/>
<path fill-rule="evenodd" clip-rule="evenodd" d="M7.46822 16.0087L9.9665 13.4495C10.3114 13.0962 10.2871 12.5462 9.91208 12.2212C9.53708 11.8962 8.95346 11.9191 8.60852 12.2725L6.11023 14.8317L7.46822 16.0087Z" fill="white"/>
<path fill-rule="evenodd" clip-rule="evenodd" d="M2.87993 12.1248L5.32646 9.52157C5.66425 9.16213 5.62886 8.61272 5.24741 8.29442C4.86596 7.97613 4.2829 8.00947 3.94511 8.36891L1.49858 10.9721L2.87993 12.1248Z" fill="white"/>
<path fill-rule="evenodd" clip-rule="evenodd" d="M5.08995 11.2395L11.4004 5.04667L12.7313 6.25084L6.42089 12.4437L5.08995 11.2395Z" fill="white"/>
</svg>
