<svg width="18" height="14" viewBox="0 0 18 14" fill="none" xmlns="http://www.w3.org/2000/svg">
<path fill-rule="evenodd" clip-rule="evenodd" d="M16.7736 6.32324H1.02356V4.82324H16.7736V6.32324Z" fill="white"/>
<path fill-rule="evenodd" clip-rule="evenodd" d="M2.47284 7.80859H5.47284V9.30859H2.47284V7.80859Z" fill="white"/>
<path fill-rule="evenodd" clip-rule="evenodd" d="M0 2.5C0 1.25736 1.00736 0.25 2.25 0.25H15.75C16.9926 0.25 18 1.25736 18 2.5V11.5C18 12.7426 16.9926 13.75 15.75 13.75H2.25C1.00736 13.75 0 12.7426 0 11.5V2.5ZM2.25 1.75C1.83579 1.75 1.5 2.08579 1.5 2.5V11.5C1.5 11.9142 1.83579 12.25 2.25 12.25H15.75C16.1642 12.25 16.5 11.9142 16.5 11.5V2.5C16.5 2.08579 16.1642 1.75 15.75 1.75H2.25Z" fill="white"/>
</svg>
