<svg width="16" height="16" viewBox="0 0 16 16" fill="none" xmlns="http://www.w3.org/2000/svg">
<path fill-rule="evenodd" clip-rule="evenodd" d="M5.76318 4.25H12.5132V5.75H5.76318V4.25Z" fill="white"/>
<path d="M5.01318 5C5.01318 5.41421 4.6774 5.75 4.26318 5.75C3.84897 5.75 3.51318 5.41421 3.51318 5C3.51318 4.58579 3.84897 4.25 4.26318 4.25C4.6774 4.25 5.01318 4.58579 5.01318 5Z" fill="white"/>
<path fill-rule="evenodd" clip-rule="evenodd" d="M5.76318 7.25H12.5132V8.75H5.76318V7.25Z" fill="white"/>
<path d="M5.01318 8C5.01318 8.41421 4.6774 8.75 4.26318 8.75C3.84897 8.75 3.51318 8.41421 3.51318 8C3.51318 7.58579 3.84897 7.25 4.26318 7.25C4.6774 7.25 5.01318 7.58579 5.01318 8Z" fill="white"/>
<path fill-rule="evenodd" clip-rule="evenodd" d="M5.75806 10.25H12.5081V11.75H5.75806V10.25Z" fill="white"/>
<path d="M5.00806 11C5.00806 11.4142 4.67227 11.75 4.25806 11.75C3.84384 11.75 3.50806 11.4142 3.50806 11C3.50806 10.5858 3.84384 10.25 4.25806 10.25C4.67227 10.25 5.00806 10.5858 5.00806 11Z" fill="white"/>
<path fill-rule="evenodd" clip-rule="evenodd" d="M0.5 2.75C0.5 1.50736 1.50736 0.5 2.75 0.5H13.25C14.4926 0.5 15.5 1.50736 15.5 2.75V13.25C15.5 14.4926 14.4926 15.5 13.25 15.5H2.75C1.50736 15.5 0.5 14.4926 0.5 13.25V2.75ZM2.75 2C2.33579 2 2 2.33579 2 2.75V13.25C2 13.6642 2.33579 14 2.75 14H13.25C13.6642 14 14 13.6642 14 13.25V2.75C14 2.33579 13.6642 2 13.25 2H2.75Z" fill="white"/>
</svg>
