<svg width="18" height="16" viewBox="0 0 18 16" fill="none" xmlns="http://www.w3.org/2000/svg">
<path d="M5.25 0.875C4.42157 0.875 3.75 1.54657 3.75 2.375H16.5V10.625C17.3284 10.625 18 9.95345 18 9.125V2.375C18 1.54657 17.3284 0.875 16.5 0.875H5.25Z" fill="white"/>
<path d="M7.125 11.75C7.95345 11.75 8.625 11.0785 8.625 10.25C8.625 9.42155 7.95345 8.75 7.125 8.75C6.29657 8.75 5.625 9.42155 5.625 10.25C5.625 11.0785 6.29657 11.75 7.125 11.75Z" fill="white"/>
<path fill-rule="evenodd" clip-rule="evenodd" d="M1.5 5.375C0.671573 5.375 0 6.04657 0 6.875V13.625C0 14.4535 0.671573 15.125 1.5 15.125H12.75C13.5785 15.125 14.25 14.4535 14.25 13.625V6.875C14.25 6.04657 13.5785 5.375 12.75 5.375H1.5ZM12.75 6.875H1.5V13.625H12.75V6.875Z" fill="white"/>
</svg>
