<svg width="16" height="16" viewBox="0 0 16 16" fill="none" xmlns="http://www.w3.org/2000/svg">
<path fill-rule="evenodd" clip-rule="evenodd" d="M4.25 8.75H11.75V10.25H4.25V8.75Z" fill="white"/>
<path fill-rule="evenodd" clip-rule="evenodd" d="M5.23107 9.10812L7.52466 11L6.54544 12.1363L4.25185 10.2444L5.23107 9.10812Z" fill="white"/>
<path fill-rule="evenodd" clip-rule="evenodd" d="M11.75 7.25H4.25V5.75H11.75V7.25Z" fill="white"/>
<path fill-rule="evenodd" clip-rule="evenodd" d="M10.7689 6.89188L8.47534 5L9.45456 3.86372L11.7482 5.7556L10.7689 6.89188Z" fill="white"/>
<path fill-rule="evenodd" clip-rule="evenodd" d="M0.5 2.75C0.5 1.50736 1.50736 0.5 2.75 0.5H13.25C14.4926 0.5 15.5 1.50736 15.5 2.75V13.25C15.5 14.4926 14.4926 15.5 13.25 15.5H2.75C1.50736 15.5 0.5 14.4926 0.5 13.25V2.75ZM2.75 2C2.33579 2 2 2.33579 2 2.75V13.25C2 13.6642 2.33579 14 2.75 14H13.25C13.6642 14 14 13.6642 14 13.25V2.75C14 2.33579 13.6642 2 13.25 2H2.75Z" fill="white"/>
</svg>
