<svg width="16" height="16" viewBox="0 0 16 16" fill="none" xmlns="http://www.w3.org/2000/svg">
<path fill-rule="evenodd" clip-rule="evenodd" d="M5.7396 3.50003L5.73939 12.5L4.23939 12.5L4.2396 3.5L5.7396 3.50003Z" fill="white"/>
<path fill-rule="evenodd" clip-rule="evenodd" d="M12.0313 5V12.5H10.5313V5H12.0313Z" fill="white"/>
<path fill-rule="evenodd" clip-rule="evenodd" d="M8.88569 8V12.5H7.38569V8H8.88569Z" fill="white"/>
<path fill-rule="evenodd" clip-rule="evenodd" d="M0.5 2.75C0.5 1.50736 1.50736 0.5 2.75 0.5H13.25C14.4926 0.5 15.5 1.50736 15.5 2.75V13.25C15.5 14.4926 14.4926 15.5 13.25 15.5H2.75C1.50736 15.5 0.5 14.4926 0.5 13.25V2.75ZM2.75 2C2.33579 2 2 2.33579 2 2.75V13.25C2 13.6642 2.33579 14 2.75 14H13.25C13.6642 14 14 13.6642 14 13.25V2.75C14 2.33579 13.6642 2 13.25 2H2.75Z" fill="white"/>
</svg>
