<svg id="Layer_1" data-name="Layer 1" xmlns="http://www.w3.org/2000/svg" viewBox="0 0 728.6 146.4"><defs><style>.cls-1{fill:#ef3124;}</style></defs><title>alfabank_secondary_logo_red_ru_rgb</title><polygon class="cls-1" points="703.61 28.91 678.75 56.77 678.75 28.91 660.76 28.91 660.76 99.25 678.75 99.25 678.75 69.64 705.36 99.25 728.6 99.25 695.87 62.4 726.23 28.91 703.61 28.91"/><polygon class="cls-1" points="629.04 55.15 604.17 55.15 604.17 28.91 586.18 28.91 586.18 99.25 604.17 99.25 604.17 71.52 629.04 71.52 629.04 99.25 647.03 99.25 647.03 28.91 629.04 28.91 629.04 55.15"/><path class="cls-1" d="M106.82,67c-.43,13.12-2.12,15.74-9.5,15.74V99.25h2.75c18.39,0,22.81-9.49,23.49-30.6l.75-23.37h17.24v54h18V28.92H108.07Z" transform="translate(0 0)"/><path class="cls-1" d="M204.26,50.28h-13V28.92h-18V99.25h31.24c19.61,0,26.61-12.74,26.61-24.73,0-15.49-9.75-24.24-26.86-24.24m-1.38,33.48H191.26V65.9h11.62c6.25,0,10,2.75,10,8.62,0,6.37-3.63,9.24-10,9.24" transform="translate(0 0)"/><path class="cls-1" d="M289.71,27.29V1.18h-18V27.29C251.11,29,237.24,43.66,237.24,64s13.87,35.11,34.48,36.86v26.49h18V100.88C310.33,99.25,324.2,84.51,324.2,64s-13.87-35.1-34.49-36.73m-18,56.6c-10-1.38-16.24-8.87-16.24-19.87s6.25-18.49,16.24-19.86Zm18,0V44.16C299.71,45.53,306,53,306,64s-6.25,18.49-16.25,19.87" transform="translate(0 0)"/><path class="cls-1" d="M391.66,77.64V54c0-17.24-11-28.11-29.48-28.11-19.12,0-29.24,11.49-30.11,23.48h18.24c.62-2.62,3.37-7.12,11.87-7.12,7,0,11.49,3.25,11.49,11.75H355.8c-16,0-25.48,8.37-25.48,22.36C330.32,91,340.7,101,355.68,101c11,0,17.08-5.19,19.74-9.12,2.37,4.75,7.62,7.37,14.49,7.37h6.25V83c-3.25,0-4.5-1.5-4.5-5.37m-18-4.62c0,8.12-5.75,12.74-13.24,12.74-6.5,0-11.62-2.37-11.62-9.37s5.62-8,10.49-8h14.37Z" transform="translate(0 0)"/><path class="cls-1" d="M468.75,38.91H448.63V19.05h46.6V1.18H429.77V99.25h39c21.61,0,34-10.74,34-30.48,0-18.61-12.37-29.86-34-29.86m-.88,42.6H448.63V56h19.24c10,0,15.62,4.62,15.62,12.74,0,8.37-5.62,12.74-15.62,12.74" transform="translate(0 0)"/><path class="cls-1" d="M571.57,77.64V54c0-17.24-11-28.11-29.49-28.11C523,25.92,512.85,37.41,512,49.4h18.24c.63-2.62,3.38-7.12,11.87-7.12,7,0,11.5,3.25,11.5,11.75H535.71c-16,0-25.49,8.37-25.49,22.36C510.22,91,520.61,101,535.59,101c11,0,17.07-5.19,19.74-9.12,2.37,4.75,7.62,7.37,14.49,7.37h6.24V83c-3.24,0-4.49-1.5-4.49-5.37m-18-4.62c0,8.12-5.75,12.74-13.25,12.74-6.49,0-11.62-2.37-11.62-9.37s5.63-8,10.5-8h14.37Z" transform="translate(0 0)"/><rect class="cls-1" y="126.41" width="96.2" height="19.99"/><path class="cls-1" d="M65.59,14.64C62.84,6.46,59.68,0,48.85,0S34.65,6.44,31.77,14.64L2,99.25H21.74l6.87-20.11h38L73,99.25H94ZM34.36,62.15,47.85,22h.5L61.09,62.15Z" transform="translate(0 0)"/></svg>