<svg width="12" height="12" viewBox="0 0 12 12" fill="none" xmlns="http://www.w3.org/2000/svg">
<path d="M6.68116 9.19688V5.2H5.32389V9.19688H6.68116Z" fill="#546272"/>
<path d="M6.87188 3.52813C6.87188 4.00965 6.48152 4.4 6 4.4C5.51848 4.4 5.12813 4.00965 5.12813 3.52813C5.12813 3.0466 5.51848 2.65625 6 2.65625C6.48152 2.65625 6.87188 3.0466 6.87188 3.52813Z" fill="#546272"/>
<path fill-rule="evenodd" clip-rule="evenodd" d="M12 6C12 9.31371 9.31371 12 6 12C2.68629 12 0 9.31371 0 6C0 2.68629 2.68629 0 6 0C9.31371 0 12 2.68629 12 6ZM10.8 6C10.8 8.65097 8.65097 10.8 6 10.8C3.34903 10.8 1.2 8.65097 1.2 6C1.2 3.34903 3.34903 1.2 6 1.2C8.65097 1.2 10.8 3.34903 10.8 6Z" fill="#546272"/>
</svg>
